<svg width="355" height="218" viewBox="0 0 355 218" fill="none" xmlns="http://www.w3.org/2000/svg">
<path d="M8.91384 40.1495C10.6863 41.924 12.4219 43.6615 14.1944 45.436C13.2343 46.545 11.8311 48.4304 10.9079 51.0551C10.2063 52.9775 9.98472 54.715 9.91087 56.0089C7.06747 57.3397 4.18715 58.6336 1.34375 59.9644C1.6761 61.7759 2.34078 64.1788 3.70709 66.8036C4.6672 68.652 5.73809 70.1677 6.6982 71.2767C8.91384 70.1307 11.1295 68.9847 13.3082 67.8387C14.1944 68.8368 15.3023 69.9458 16.7424 71.0549C18.7734 72.6076 20.7306 73.6057 22.2815 74.2711C21.9492 82.2562 21.6537 90.3153 21.4322 98.4483C20.4351 133.938 20.6567 168.318 21.8753 201.516C37.6063 201.663 53.3373 201.811 69.0684 201.959C69.4376 202.662 69.77 203.401 70.1392 204.103C72.1333 203.549 74.1274 202.957 76.1215 202.403C76.4538 203.475 77.3031 205.582 79.3341 207.32C80.3312 208.17 81.3282 208.687 82.1037 209.02C81.3282 211.164 80.5527 213.308 79.7403 215.453C81.4021 215.933 83.5808 216.414 86.1657 216.525C88.049 216.599 89.6738 216.488 91.077 216.303C91.1509 214.307 91.2247 212.31 91.2986 210.314C92.6279 210.166 94.8067 209.722 97.0592 208.392C98.4994 207.541 99.5333 206.617 100.272 205.841C102.266 206.691 104.26 207.541 106.254 208.392C106.734 207.283 107.214 206.137 107.731 204.954C108.174 203.992 108.581 203.068 109.024 202.181C111.867 202.181 115.412 202.181 118.403 202.181C162.568 202.144 186.091 201.885 217.294 201.737C231.253 201.7 251.304 201.626 275.824 201.737C275.898 192.606 275.972 183.475 276.046 174.381C302.042 174.529 328.002 174.677 353.999 174.825C353.778 117.043 353.556 59.2251 353.371 1.44385C268.734 1.59172 184.097 1.73959 99.4595 1.88747C99.4595 13.1628 99.4595 24.4011 99.4595 35.6764C82.2145 35.4546 65.0064 35.2327 47.7613 35.0479C46.7643 34.5673 45.7672 34.0498 44.7702 33.5692C42.5546 35.8612 40.3389 38.1163 38.1602 40.4083C37.5694 39.595 35.7969 37.3769 32.6211 36.3418C28.3376 34.974 24.7556 36.8224 24.0909 37.1921C22.8723 35.2697 21.6537 33.3474 20.4721 31.425C19.0319 31.7577 16.6686 32.4601 14.2683 34.1976C11.1664 36.1939 9.61546 38.7447 8.91384 40.1495Z" fill="white"/>
<path d="M21.5401 201.516C21.2077 201.516 20.9492 175.047 20.9492 142.367C20.9492 109.687 21.2077 83.2178 21.5401 83.2178C21.8724 83.2178 22.1309 109.687 22.1309 142.367C22.1309 175.047 21.8724 201.516 21.5401 201.516Z" fill="black" stroke="black" stroke-width="0.981456" stroke-miterlimit="10"/>
<path d="M275.56 201.994C275.56 202.327 238.3 202.586 192.326 202.586C146.351 202.586 109.092 202.327 109.092 201.994C109.092 201.662 146.351 201.403 192.326 201.403C238.3 201.403 275.56 201.662 275.56 201.994Z" fill="black" stroke="black" stroke-width="0.981456" stroke-miterlimit="10"/>
<path d="M68.5171 201.994C68.5171 202.327 58.2882 202.586 45.696 202.586C33.1039 202.586 22.875 202.327 22.875 201.994C22.875 201.662 33.1039 201.403 45.696 201.403C58.2882 201.403 68.5171 201.662 68.5171 201.994Z" fill="black" stroke="black" stroke-width="0.981456" stroke-miterlimit="10"/>
<path d="M25.0155 64.5855C25.0524 64.4746 25.754 64.7704 27.0465 64.8443C27.7112 64.8443 28.4866 64.8074 29.3729 64.5486C30.2591 64.2898 31.2193 63.8832 32.1794 63.2547C33.1025 62.6262 34.0257 61.739 34.6904 60.556C35.3551 59.41 35.7613 58.0052 35.909 56.4895C36.0198 55.0108 35.7244 53.3842 34.9858 52.0164C34.1734 50.6116 32.9548 49.3547 31.4408 48.6153C29.9268 47.9129 28.1912 47.839 26.6403 48.3196C25.0893 48.8002 23.7969 49.7244 22.8737 50.9073C21.9505 52.0534 21.3597 53.4212 21.0643 54.7151C20.7688 56.0089 20.8058 57.3028 20.9904 58.4488C21.175 59.5948 21.5443 60.593 21.9874 61.4063C22.4306 62.2196 22.9106 62.848 23.3907 63.2917C24.3508 64.1789 25.0524 64.4746 24.9786 64.5855C24.9786 64.6225 24.1661 64.5116 23.0583 63.6613C22.5044 63.2177 21.9136 62.5893 21.3966 61.739C20.8796 60.8887 20.4365 59.8536 20.178 58.6337C19.9195 57.4137 19.8087 56.0089 20.1041 54.5302C20.3626 53.0885 20.9904 51.5728 22.0244 50.2049C23.0583 48.8741 24.5354 47.765 26.3449 47.2105C27.2311 46.9148 28.1912 46.8039 29.1513 46.8408C30.1114 46.8778 31.1085 47.1366 31.9947 47.5432C32.9179 47.9499 33.6934 48.5414 34.3581 49.2068C35.0228 49.8722 35.6136 50.6116 36.0567 51.4249C36.4999 52.2382 36.7953 53.1254 36.943 53.9757C37.0168 54.4193 37.0907 54.8629 37.0907 55.2696C37.1276 55.7132 37.0907 56.1199 37.0538 56.5635C36.8691 58.227 36.3891 59.7797 35.6136 61.0366C34.8381 62.3305 33.7672 63.2917 32.6963 63.9571C31.6255 64.5856 30.5546 64.9922 29.5945 65.177C28.6343 65.3619 27.7481 65.3619 27.0834 65.2879C25.6432 65.1031 25.0155 64.6595 25.0155 64.5855Z" fill="black" stroke="black" stroke-width="0.981456" stroke-miterlimit="10"/>
<path d="M14.2731 45.4353C14.5316 45.6941 12.796 47.6904 11.5774 50.6479C10.3219 53.6053 10.1003 56.23 9.73102 56.23C9.58331 56.23 9.43561 55.5276 9.47254 54.4186C9.50946 53.8641 9.58331 53.1987 9.73102 52.4593C9.87873 51.7199 10.1372 50.9436 10.4696 50.1673C10.8019 49.3909 11.2081 48.6516 11.6143 48.0231C12.0205 47.3947 12.4267 46.8771 12.8329 46.4705C13.5715 45.6941 14.1623 45.3614 14.2731 45.4353Z" fill="black" stroke="black" stroke-width="0.981456" stroke-miterlimit="10"/>
<path d="M10.2484 56.5259C10.2853 56.8586 8.25433 57.3392 5.81713 58.1895C3.41686 59.0028 1.49665 59.89 1.31201 59.5943C1.23815 59.4464 1.60742 59.0397 2.34597 58.5592C3.08451 58.0786 4.1554 57.4871 5.44786 57.0804C6.70338 56.6368 7.92198 56.415 8.80824 56.3781C9.69449 56.2672 10.2484 56.3781 10.2484 56.5259Z" fill="black" stroke="black" stroke-width="0.981456" stroke-miterlimit="10"/>
<path d="M6.36111 71.1276C6.25032 71.2385 5.6595 70.7949 4.8471 69.9077C4.07162 69.0204 3.14844 67.6896 2.37297 66.026C1.63442 64.3994 1.22822 62.7728 1.08051 61.6268C0.932803 60.4438 1.00666 59.7045 1.15437 59.7045C1.48672 59.6675 2.04062 62.4401 3.48078 65.5454C4.88402 68.6877 6.6196 70.9058 6.36111 71.1276Z" fill="black" stroke="black" stroke-width="0.981456" stroke-miterlimit="10"/>
<path d="M14.1216 67.2843C14.2324 67.3952 13.937 67.8388 13.3092 68.4303C12.7183 68.9848 11.7582 69.6502 10.6504 70.2417C9.50566 70.7963 8.43477 71.1659 7.62237 71.3138C6.80996 71.4617 6.29298 71.4247 6.25605 71.2768C6.18219 70.9441 8.02856 70.2417 10.1334 69.1696C12.2383 68.0606 13.9 67.0255 14.1216 67.2843Z" fill="black" stroke="black" stroke-width="0.981456" stroke-miterlimit="10"/>
<path d="M23.2778 74.4191C23.2778 74.567 22.5762 74.7149 21.4314 74.53C20.3236 74.3452 18.8096 73.7167 17.4433 72.6447C16.077 71.5726 15.0799 70.3896 14.4522 69.5393C13.7875 68.6521 13.4921 68.0236 13.6028 67.9497C13.7136 67.8388 14.2675 68.2454 15.0799 68.9848C15.8923 69.7242 16.9263 70.7593 18.1818 71.7205C19.4373 72.6816 20.6929 73.347 21.653 73.7537C22.6131 74.1234 23.2778 74.2712 23.2778 74.4191Z" fill="black" stroke="black" stroke-width="0.981456" stroke-miterlimit="10"/>
<path d="M22.4951 83.5501C22.1627 83.587 21.5719 81.5908 21.535 79.003C21.4611 76.4152 21.9412 74.382 22.2735 74.419C22.6058 74.4559 22.6797 76.4892 22.7536 78.966C22.7905 81.4429 22.8274 83.4761 22.4951 83.5501Z" fill="black" stroke="black" stroke-width="0.981456" stroke-miterlimit="10"/>
<path d="M34.4638 83.6973C34.5007 83.8451 33.873 84.1778 32.7651 84.5106C31.6573 84.8063 30.1064 85.0651 28.4077 85.213C27.5584 85.2869 26.7091 85.3239 25.9336 85.2499C25.1581 85.176 24.4565 85.0281 23.9026 84.8063C22.7578 84.3627 22.2778 83.7342 22.3886 83.6233C22.4993 83.4754 23.0902 83.8082 24.1241 83.956C24.6411 84.0669 25.2689 84.1039 25.9705 84.1039C26.6721 84.1039 27.4476 84.0669 28.2969 83.993C29.9956 83.8451 31.5096 83.7342 32.6174 83.6603C33.7252 83.5494 34.4269 83.5124 34.4638 83.6973Z" fill="black" stroke="black" stroke-width="0.981456" stroke-miterlimit="10"/>
<path d="M34.3983 83.7716C34.066 83.7346 34.066 81.5535 33.8075 78.8918C33.5859 76.2301 33.2536 74.0859 33.5859 74.012C33.8813 73.9011 34.8045 76.0083 35.0261 78.8179C35.2846 81.5905 34.7307 83.8086 34.3983 83.7716Z" fill="black" stroke="black" stroke-width="0.981456" stroke-miterlimit="10"/>
<path d="M45.1038 68.3572C45.2145 68.4311 44.993 69.2074 44.1806 70.1686C43.3682 71.1298 41.9649 72.2388 40.3401 73.0891C39.5277 73.5327 38.7153 73.9024 37.9768 74.2351C37.2383 74.5678 36.4997 74.7896 35.835 74.8636C35.1703 74.9375 34.6164 74.7896 34.2841 74.6418C33.9517 74.4569 33.841 74.2721 33.8779 74.2351C33.9148 74.1612 34.0994 74.1981 34.4318 74.1981C34.7272 74.1981 35.1703 74.1982 35.7242 74.0503C36.2412 73.9024 36.869 73.6436 37.5706 73.2739C38.2722 72.9043 39.0477 72.4976 39.8232 72.054C41.411 71.2037 42.7773 70.3165 43.6636 69.5771C44.476 68.8378 44.9561 68.2463 45.1038 68.3572Z" fill="black" stroke="black" stroke-width="0.981456" stroke-miterlimit="10"/>
<path d="M52.5972 72.1999C52.4864 72.4957 50.5662 72.1999 48.4244 71.1648C46.2826 70.1297 44.8055 68.8358 44.9902 68.5401C45.1748 68.2443 46.8735 69.0576 48.9414 70.0558C51.0093 71.0539 52.708 71.8672 52.5972 72.1999Z" fill="black" stroke="black" stroke-width="0.981456" stroke-miterlimit="10"/>
<path d="M57.8793 61.1479C58.027 61.1479 58.2485 61.8503 58.2485 63.0333C58.2485 63.6248 58.1747 64.3272 58.027 65.1035C57.8423 65.8799 57.5838 66.6932 57.2146 67.5434C56.8453 68.3567 56.3652 69.0961 55.8852 69.7246C55.4051 70.353 54.9251 70.8706 54.445 71.2403C53.5218 72.0166 52.8571 72.2754 52.7464 72.1645C52.6356 72.0166 53.1156 71.499 53.8173 70.6488C54.1865 70.2052 54.5558 69.6876 54.962 69.0961C55.3682 68.4677 55.7375 67.8022 56.1068 67.0629C56.4391 66.3235 56.7345 65.5472 56.9561 64.8817C57.1407 64.1793 57.3254 63.5509 57.3992 62.9964C57.6208 61.8873 57.6946 61.1849 57.8793 61.1479Z" fill="black" stroke="black" stroke-width="0.981456" stroke-miterlimit="10"/>
<path d="M58.1 60.8877C57.9153 61.1834 56.4382 60.4441 54.5919 59.6678C52.7824 58.8545 51.2684 58.263 51.3053 57.9303C51.3792 57.5975 53.1148 57.7085 55.0719 58.5587C57.0291 59.409 58.2846 60.6289 58.1 60.8877Z" fill="black" stroke="black" stroke-width="0.981456" stroke-miterlimit="10"/>
<path d="M14.2713 45.2895C14.0867 45.5482 12.4988 44.661 10.9478 43.1083C9.39688 41.5557 8.51061 40.003 8.7691 39.7812C9.02759 39.5594 10.3201 40.7424 11.7972 42.2581C13.3112 43.7738 14.4929 45.0307 14.2713 45.2895Z" fill="black" stroke="black" stroke-width="0.981456" stroke-miterlimit="10"/>
<path d="M19.9553 31.4624C19.9923 31.6103 19.2537 31.98 18.109 32.6084C16.9642 33.1999 15.3394 34.0132 13.7516 35.1223C12.9392 35.6768 12.2375 36.2683 11.6836 36.8598C11.0928 37.4513 10.6497 38.0428 10.3173 38.5603C9.65263 39.6324 9.468 40.4087 9.28336 40.4087C9.13565 40.4087 9.02486 39.4845 9.54184 38.1906C9.80033 37.5252 10.2435 36.8228 10.8343 36.1204C11.4251 35.418 12.2006 34.7526 13.0499 34.1611C13.8993 33.5696 14.7855 33.089 15.5979 32.7194C16.4103 32.3497 17.1489 32.0539 17.7766 31.8321C19.0691 31.4255 19.9184 31.3146 19.9553 31.4624Z" fill="black" stroke="black" stroke-width="0.981456" stroke-miterlimit="10"/>
<path d="M23.9031 36.8949C23.6077 37.0428 22.6845 35.9337 21.6875 34.5289C20.6904 33.0872 19.9888 31.8302 20.2473 31.6084C20.5058 31.3866 21.6505 32.3478 22.6845 33.8265C23.7185 35.3052 24.1985 36.71 23.9031 36.8949Z" fill="black" stroke="black" stroke-width="0.981456" stroke-miterlimit="10"/>
<path d="M38.5345 40.5559C38.4237 40.7038 37.6851 40.1492 36.4665 39.4099C35.2479 38.7075 33.4754 37.8572 31.3706 37.3766C29.2657 36.896 27.3455 36.933 25.9053 37.0439C24.4652 37.1548 23.542 37.1918 23.5051 37.0069C23.4681 36.8591 24.3175 36.5264 25.7945 36.1937C26.5331 36.0458 27.4194 35.8979 28.4164 35.8609C29.4134 35.824 30.5212 35.9349 31.666 36.1937C33.9186 36.7112 35.8019 37.7463 36.9835 38.6705C38.1283 39.6687 38.6452 40.445 38.5345 40.5559Z" fill="black" stroke="black" stroke-width="0.981456" stroke-miterlimit="10"/>
<path d="M45.2484 33.679C45.4331 33.9747 43.6605 35.2316 41.888 37.154C41.0018 38.1152 40.1155 39.0763 39.2662 39.5569C38.4168 40.0375 37.7891 40.0375 37.7521 39.8896C37.7152 39.7048 38.1584 39.446 38.7492 38.8545C39.377 38.3 40.0786 37.3758 41.0018 36.3407C41.9619 35.3056 42.9958 34.5293 43.7713 34.1226C44.5837 33.679 45.1746 33.5311 45.2484 33.679Z" fill="black" stroke="black" stroke-width="0.981456" stroke-miterlimit="10"/>
<path d="M53.8471 44.4751C53.6625 44.512 53.3301 43.8096 52.7024 42.7376C52.407 42.1831 52.0008 41.5916 51.5207 40.9261C51.0407 40.2607 50.4867 39.5583 49.8959 38.819C48.6773 37.3772 47.4587 36.1203 46.6094 35.1961C45.76 34.2719 45.28 33.6065 45.3908 33.4955C45.5015 33.3846 46.2032 33.7913 47.2002 34.5676C48.1972 35.344 49.5266 36.5269 50.8191 38.0426C51.4469 38.782 52.0008 39.5583 52.4808 40.2977C52.924 41.037 53.2563 41.7394 53.5148 42.3679C53.9579 43.5878 53.9948 44.4011 53.8471 44.4751Z" fill="black" stroke="black" stroke-width="0.981456" stroke-miterlimit="10"/>
<path d="M50.7409 48.0981C52.5929 46.9045 53.9509 45.7143 53.7743 45.4396C53.5977 45.165 51.9532 45.9099 50.1013 47.1035C48.2493 48.2971 46.8912 49.4873 47.0679 49.762C47.2445 50.0366 48.889 49.2917 50.7409 48.0981Z" fill="black" stroke="black" stroke-width="0.981456" stroke-miterlimit="10"/>
<path d="M50.7164 58.0783C50.384 58.0783 50.2733 55.9341 49.3501 53.5682C48.4269 51.2022 47.0606 49.5756 47.3191 49.3168C47.4299 49.2059 47.9468 49.4647 48.5746 50.1301C49.2024 50.7586 49.9778 51.8307 50.4579 53.1245C50.9749 54.4184 51.1226 55.7123 51.0857 56.6365C51.0487 57.5607 50.8641 58.1153 50.7164 58.0783Z" fill="black" stroke="black" stroke-width="0.981456" stroke-miterlimit="10"/>
<path d="M75.4914 186.137C75.4545 186.174 75.196 185.804 74.679 185.065C74.1989 184.325 73.4604 183.253 72.5372 181.849C72.0941 181.146 71.5771 180.37 71.0232 179.483C70.4693 178.632 69.8784 177.671 69.2507 176.673C67.9951 174.64 66.555 172.348 65.041 169.76C64.2655 168.466 63.4531 167.135 62.6407 165.73C61.7914 164.326 60.942 162.847 60.0558 161.331C58.2833 158.3 56.4369 155.01 54.4798 151.535C50.6024 144.622 46.4296 136.932 42.183 128.836C33.6528 112.607 26.3412 97.746 21.0606 86.9513C18.4388 81.554 16.3339 77.1918 14.9307 74.1234C14.2291 72.6077 13.6751 71.4247 13.3059 70.6114C12.9366 69.7981 12.7889 69.3545 12.8258 69.3545C12.8627 69.3545 13.1212 69.7242 13.5274 70.5005C13.9336 71.2768 14.5614 72.4229 15.3369 73.9016C16.8878 76.859 19.1035 81.1843 21.8361 86.5447C27.2644 97.2285 34.7237 112.016 43.2539 128.245C47.5005 136.341 51.6364 143.993 55.4768 150.943C57.397 154.418 59.2065 157.708 60.979 160.777C61.8652 162.292 62.6776 163.808 63.49 165.213C64.3024 166.618 65.0779 167.986 65.8534 169.279C67.3305 171.867 68.7337 174.196 69.9154 176.266C70.5062 177.302 71.0601 178.263 71.5771 179.15C72.0941 180.037 72.5741 180.813 72.9803 181.553C73.8297 182.995 74.4944 184.141 74.9006 184.88C75.3068 185.693 75.5283 186.1 75.4914 186.137Z" fill="black" stroke="black" stroke-width="0.981456" stroke-miterlimit="10"/>
<path d="M55.6613 59.6681C55.329 59.742 54.3319 56.9694 53.2611 53.4944C52.1902 50.0193 51.3778 47.1728 51.7101 47.0619C52.0055 46.951 53.3349 49.6497 54.4058 53.1616C55.5136 56.6367 55.9937 59.5941 55.6613 59.6681Z" fill="black" stroke="black" stroke-width="0.981456" stroke-miterlimit="10"/>
<path d="M87.6096 181.036C87.5727 181.036 87.425 180.666 87.1296 179.89C86.8711 179.15 86.4649 178.004 85.9848 176.563C85.0247 173.679 83.6584 169.465 82.0336 164.289C80.4088 159.077 78.5255 152.866 76.5315 145.953C75.5344 142.478 74.5374 138.855 73.5404 135.047C72.5433 131.24 71.5463 127.321 70.6231 123.255C69.6999 119.188 68.7767 115.232 67.9274 111.425C67.0781 107.617 66.2657 103.92 65.4902 100.371C63.9393 93.3473 62.5729 86.9888 61.4651 81.6654C60.3573 76.3419 59.4341 72.0167 58.8433 69.0222C58.5479 67.5435 58.3263 66.3605 58.1786 65.5842C58.0309 64.8079 57.994 64.3643 58.0309 64.3643C58.0678 64.3643 58.2155 64.7709 58.4002 65.5472C58.6217 66.3236 58.9171 67.4696 59.2864 68.9483C60.025 71.9058 61.0589 76.1941 62.2775 81.5175C63.4961 86.8409 64.9732 93.1255 66.5611 100.149C67.3735 103.661 68.1859 107.358 69.0721 111.166C69.9584 114.974 70.8816 118.929 71.8048 122.996C72.691 127.062 73.725 130.981 74.6851 134.752C75.6452 138.559 76.6422 142.182 77.6024 145.657C79.5226 152.607 81.332 158.818 82.846 164.067C84.36 169.28 85.6156 173.531 86.428 176.452C86.8342 177.93 87.1665 179.076 87.3511 179.853C87.5727 180.592 87.6466 180.999 87.6096 181.036Z" fill="black" stroke="black" stroke-width="0.981456" stroke-miterlimit="10"/>
<path d="M77.9734 187.579C77.678 187.764 76.7917 186.729 75.8686 185.361C74.9454 183.993 74.3176 182.773 74.5761 182.551C74.8346 182.33 75.9055 183.254 76.8656 184.659C77.8257 186.1 78.2688 187.431 77.9734 187.579Z" fill="black" stroke="black" stroke-width="0.981456" stroke-miterlimit="10"/>
<path d="M85.9094 182.922C85.7617 182.996 85.2078 182.33 84.3954 181.184C83.9892 180.593 83.546 179.927 83.0291 179.151C82.9183 178.966 82.7705 178.744 82.7336 178.707C82.6598 178.67 82.6598 178.67 82.4382 178.67C82.032 178.67 81.5889 178.781 81.1458 178.929C80.2595 179.262 79.3732 179.779 78.5608 180.223C77.7484 180.667 77.0468 181.036 76.4929 181.443C75.3851 182.182 74.8312 182.811 74.6835 182.737C74.5358 182.663 74.905 181.776 75.9759 180.777C76.4929 180.297 77.1945 179.779 78.0069 179.262C78.4131 179.003 78.8193 178.781 79.2625 178.522C79.7056 178.264 80.1857 178.005 80.7396 177.82C81.2935 177.635 81.8843 177.487 82.4751 177.524C82.6229 177.524 82.7706 177.524 82.9921 177.598C83.2137 177.672 83.3983 177.783 83.546 177.931C83.8414 178.264 83.9153 178.448 84.0261 178.67C84.4692 179.484 84.8385 180.223 85.1708 180.851C85.7247 181.997 86.0571 182.811 85.9094 182.922Z" fill="black" stroke="black" stroke-width="0.981456" stroke-miterlimit="10"/>
<path d="M78.1518 186.803C78.4103 187.025 77.3025 188.54 76.2316 190.574C75.1607 192.57 74.496 194.344 74.1637 194.27C74.0159 194.233 73.979 193.716 74.0898 192.94C74.2375 192.163 74.5698 191.091 75.1607 190.019C75.7515 188.947 76.4162 188.06 77.0071 187.505C77.5979 186.951 78.041 186.729 78.1518 186.803Z" fill="black" stroke="black" stroke-width="0.981456" stroke-miterlimit="10"/>
<path d="M94.067 182.884C93.9193 183.217 92.1467 182.625 89.9311 182.477C87.7155 182.293 85.8691 182.551 85.7953 182.182C85.7584 182.034 86.1645 181.738 86.94 181.516C87.7155 181.294 88.8233 181.147 90.0419 181.257C91.2605 181.368 92.3314 181.701 93.033 182.034C93.7346 182.367 94.1039 182.736 94.067 182.884Z" fill="black" stroke="black" stroke-width="0.981456" stroke-miterlimit="10"/>
<path d="M74.2368 194.011C74.2737 194.343 72.8705 194.75 71.098 194.898C69.3255 195.046 67.8853 194.898 67.8484 194.565C67.8114 194.232 69.2147 193.826 70.9872 193.678C72.7597 193.53 74.1999 193.678 74.2368 194.011Z" fill="black" stroke="black" stroke-width="0.981456" stroke-miterlimit="10"/>
<path d="M70.3603 204.51C70.2126 204.584 69.7695 204.214 69.2525 203.401C68.7356 202.624 68.1447 201.404 67.7755 200C67.4062 198.595 67.2954 197.264 67.3693 196.303C67.4431 195.342 67.6277 194.787 67.7755 194.787C68.1078 194.824 68.2186 197.042 68.9202 199.667C69.6218 202.329 70.6558 204.288 70.3603 204.51Z" fill="black" stroke="black" stroke-width="0.981456" stroke-miterlimit="10"/>
<path d="M76.4146 201.627C76.5992 201.886 75.4914 202.995 73.7558 203.624C72.0203 204.289 70.4693 204.215 70.4324 203.882C70.3955 203.55 71.7248 203.106 73.3127 202.514C74.9375 201.886 76.2299 201.331 76.4146 201.627Z" fill="black" stroke="black" stroke-width="0.981456" stroke-miterlimit="10"/>
<path d="M82.5433 208.834C82.5433 208.982 81.9155 209.13 80.9554 208.834C79.9953 208.538 78.8137 207.762 77.9274 206.542C77.0412 205.322 76.598 204.102 76.3396 203.178C76.0811 202.291 76.0442 201.699 76.1919 201.625C76.3396 201.551 76.6719 202.032 77.115 202.845C77.5582 203.621 78.1121 204.731 78.8875 205.803C79.663 206.838 80.5492 207.614 81.2878 208.058C82.0263 208.501 82.5433 208.649 82.5433 208.834Z" fill="black" stroke="black" stroke-width="0.981456" stroke-miterlimit="10"/>
<path d="M79.8513 214.603C79.5189 214.492 79.6667 213.124 80.1836 211.498C80.6637 209.871 81.3284 208.651 81.6607 208.762C81.9931 208.873 81.8454 210.241 81.3284 211.867C80.8483 213.494 80.1836 214.714 79.8513 214.603Z" fill="black" stroke="black" stroke-width="0.981456" stroke-miterlimit="10"/>
<path d="M90.7809 216.303C90.8179 216.451 90.227 216.784 89.1561 217.006C88.6391 217.117 88.0114 217.191 87.2728 217.228C86.5712 217.228 85.7957 217.191 84.9833 217.08C84.1709 216.932 83.4324 216.747 82.7308 216.488C82.0661 216.229 81.4752 215.971 81.0321 215.712C80.1089 215.157 79.6289 214.677 79.7027 214.566C79.8874 214.27 82.1399 215.453 85.168 215.897C88.196 216.34 90.7071 215.934 90.7809 216.303Z" fill="black" stroke="black" stroke-width="0.981456" stroke-miterlimit="10"/>
<path d="M90.8549 209.795C91.0026 209.758 91.2612 210.128 91.4458 210.756C91.6304 211.385 91.7412 212.309 91.6674 213.344C91.5566 214.342 91.2981 215.266 91.0027 215.858C90.7072 216.449 90.4118 216.782 90.2641 216.708C89.9317 216.56 90.3379 215.081 90.4856 213.233C90.6334 211.385 90.5226 209.869 90.8549 209.795Z" fill="black" stroke="black" stroke-width="0.981456" stroke-miterlimit="10"/>
<path d="M100.228 205.139C100.376 205.213 100.191 205.842 99.5634 206.655C99.268 207.061 98.8618 207.505 98.3448 207.949C97.8278 208.392 97.2369 208.799 96.5353 209.169C95.8337 209.501 95.1321 209.76 94.4674 209.908C93.8027 210.056 93.2119 210.13 92.6949 210.13C91.6978 210.13 91.0701 209.908 91.107 209.76C91.107 209.575 91.6979 209.501 92.621 209.28C93.0642 209.169 93.6181 209.021 94.172 208.836C94.7259 208.651 95.3537 208.392 95.9814 208.097C96.6092 207.764 97.1631 207.431 97.6431 207.098C98.1232 206.729 98.5663 206.396 98.8987 206.1C99.6372 205.472 100.08 205.028 100.228 205.139Z" fill="black" stroke="black" stroke-width="0.981456" stroke-miterlimit="10"/>
<path d="M106.141 208.169C106.03 208.465 104.553 208.28 102.928 207.467C101.303 206.654 100.232 205.619 100.417 205.323C100.602 205.027 101.931 205.619 103.445 206.358C104.996 207.134 106.215 207.837 106.141 208.169Z" fill="black" stroke="black" stroke-width="0.981456" stroke-miterlimit="10"/>
<path d="M108.651 198.743C108.799 198.706 109.094 199.261 109.242 200.185C109.316 200.665 109.353 201.22 109.316 201.848C109.279 202.477 109.168 203.179 108.983 203.882C108.762 204.584 108.503 205.212 108.208 205.804C107.913 206.358 107.58 206.839 107.248 207.172C106.62 207.874 106.103 208.207 105.992 208.096C105.734 207.837 107.137 206.137 107.876 203.586C108.577 201.035 108.319 198.817 108.651 198.743Z" fill="black" stroke="black" stroke-width="0.981456" stroke-miterlimit="10"/>
<path d="M108.54 198.151C108.43 198.484 107.026 198.188 105.365 197.855C103.703 197.523 102.3 197.227 102.337 196.894C102.337 196.561 103.814 196.303 105.623 196.672C107.396 197.042 108.651 197.855 108.54 198.151Z" fill="black" stroke="black" stroke-width="0.981456" stroke-miterlimit="10"/>
<path d="M95.1726 177.524C95.505 177.634 95.3573 178.854 94.8772 180.296C94.3972 181.738 93.7694 182.81 93.437 182.699C93.1047 182.588 93.2524 181.368 93.7325 179.926C94.2125 178.485 94.8772 177.413 95.1726 177.524Z" fill="black" stroke="black" stroke-width="0.981456" stroke-miterlimit="10"/>
<path d="M103.858 183.4C103.784 183.363 103.784 183.178 103.71 182.956C103.636 182.735 103.488 182.439 103.193 182.069C102.898 181.699 102.528 181.256 102.085 180.775C101.642 180.332 101.125 179.888 100.497 179.444C99.3156 178.631 98.0601 178.114 97.1369 177.818C96.2137 177.522 95.5859 177.411 95.5859 177.226C95.5859 177.078 96.2137 176.894 97.2846 176.968C98.3555 177.041 99.8326 177.485 101.162 178.409C101.827 178.89 102.417 179.407 102.861 179.962C103.304 180.516 103.636 181.071 103.858 181.552C104.079 182.032 104.19 182.55 104.116 182.882C104.116 183.326 103.932 183.437 103.858 183.4Z" fill="black" stroke="black" stroke-width="0.981456" stroke-miterlimit="10"/>
<path d="M101.375 187.134C101.154 186.912 101.708 185.914 102.483 184.805C103.259 183.696 103.923 182.772 104.256 182.92C104.551 183.031 104.33 184.251 103.48 185.471C102.631 186.691 101.597 187.356 101.375 187.134Z" fill="black" stroke="black" stroke-width="0.981456" stroke-miterlimit="10"/>
<path d="M102.155 197.706C101.823 197.559 102.598 195.267 102.34 192.383C102.155 189.5 101.047 187.318 101.343 187.171C101.49 187.097 101.934 187.54 102.451 188.464C102.709 188.908 102.931 189.5 103.152 190.128C103.337 190.793 103.485 191.533 103.558 192.309C103.632 193.085 103.595 193.862 103.485 194.527C103.374 195.193 103.226 195.784 103.041 196.302C102.672 197.263 102.266 197.78 102.155 197.706Z" fill="black" stroke="black" stroke-width="0.981456" stroke-miterlimit="10"/>
<path d="M85.3161 200.332C85.39 200.258 85.7592 200.628 86.5347 201.035C86.9409 201.219 87.421 201.404 88.0487 201.441C88.6396 201.515 89.3412 201.441 90.0059 201.146C90.6706 200.85 91.3353 200.332 91.8153 199.63C92.2954 198.927 92.5169 198.003 92.48 197.042C92.4431 196.044 92.1846 195.009 91.6307 194.085C91.3722 193.604 91.0398 193.16 90.6706 192.791C90.2644 192.421 89.8212 192.088 89.3412 191.866C88.8611 191.645 88.3072 191.497 87.8272 191.497C87.3102 191.497 86.867 191.645 86.4239 191.903C85.9808 192.162 85.6115 192.532 85.2423 192.939C84.873 193.308 84.5406 193.715 84.3191 194.122C84.0975 194.528 83.9867 194.935 83.9498 195.415C83.9129 195.859 83.9498 196.34 84.0236 196.783C84.1344 197.671 84.4299 198.484 84.7991 199.149C85.5377 200.48 86.7563 201.072 87.5687 201.219C88.418 201.367 88.8981 201.219 88.935 201.293C88.935 201.33 88.8611 201.404 88.6026 201.515C88.3811 201.589 88.0118 201.7 87.4948 201.663C87.0148 201.663 86.4239 201.515 85.7962 201.183C85.1684 200.85 84.5406 200.332 84.0606 199.593C83.5805 198.853 83.2113 197.966 83.0266 196.931C82.9528 196.414 82.8789 195.896 82.8789 195.342C82.8789 194.787 83.0266 194.159 83.322 193.604C83.6175 193.049 83.9867 192.569 84.3929 192.125C84.7991 191.682 85.2423 191.238 85.7962 190.905C86.3501 190.536 87.0886 190.314 87.7902 190.277C88.4918 190.277 89.1935 190.425 89.8212 190.72C90.449 191.016 91.0029 191.423 91.483 191.903C91.963 192.384 92.3323 192.902 92.6277 193.493C93.2555 194.602 93.5509 195.822 93.5509 197.005C93.5509 197.597 93.477 198.188 93.3293 198.706C93.1816 199.26 92.9231 199.778 92.5908 200.184C91.963 201.035 91.1137 201.626 90.2644 201.922C89.415 202.218 88.5657 202.218 87.901 202.07C87.1994 201.922 86.6824 201.663 86.2762 201.404C85.5007 200.85 85.2792 200.369 85.3161 200.332Z" fill="black" stroke="black" stroke-width="0.981456" stroke-miterlimit="10"/>
<path d="M183.911 154.529C183.689 154.787 178.224 150.536 172.057 144.658C165.89 138.78 161.385 133.494 161.643 133.272C161.902 133.05 166.739 137.93 172.906 143.771C179.036 149.649 184.132 154.27 183.911 154.529Z" fill="black" stroke="black" stroke-width="0.981456" stroke-miterlimit="10"/>
<path d="M168.512 127.505C168.475 127.69 167.921 127.69 167.071 127.875C166.222 128.06 165.114 128.43 164.117 129.243C163.157 130.056 162.566 131.091 162.234 131.905C161.902 132.718 161.791 133.272 161.606 133.272C161.459 133.272 161.237 132.681 161.385 131.683C161.532 130.722 162.086 129.354 163.305 128.319C164.523 127.32 165.964 126.988 166.961 127.025C167.995 127.062 168.549 127.357 168.512 127.505Z" fill="black" stroke="black" stroke-width="0.981456" stroke-miterlimit="10"/>
<path d="M191.373 149.242C191.115 149.464 186.093 144.436 179.741 138.374C173.39 132.311 168.072 127.579 168.294 127.32C168.478 127.061 174.165 131.423 180.554 137.523C186.979 143.586 191.632 149.02 191.373 149.242Z" fill="black" stroke="black" stroke-width="0.981456" stroke-miterlimit="10"/>
<path d="M190.71 148.65C190.858 148.613 191.153 149.279 191.005 150.425C190.931 150.979 190.747 151.645 190.414 152.31C190.045 152.976 189.528 153.641 188.79 154.159C188.051 154.676 187.276 154.972 186.537 155.12C185.799 155.268 185.097 155.231 184.58 155.12C183.472 154.898 182.955 154.417 182.992 154.27C183.066 154.122 183.694 154.27 184.654 154.27C185.614 154.27 186.943 154.011 188.088 153.197C189.233 152.384 189.861 151.164 190.193 150.277C190.488 149.316 190.525 148.65 190.71 148.65Z" fill="black" stroke="black" stroke-width="0.981456" stroke-miterlimit="10"/>
<path d="M189.564 148.243C189.49 148.428 188.9 148.28 188.013 148.354C187.127 148.391 185.908 148.687 184.911 149.537C183.914 150.387 183.434 151.533 183.25 152.42C183.065 153.308 183.102 153.899 182.917 153.936C182.77 153.973 182.4 153.382 182.4 152.346C182.4 151.829 182.511 151.163 182.77 150.535C183.028 149.87 183.508 149.204 184.136 148.65C184.764 148.095 185.502 147.762 186.204 147.614C186.906 147.467 187.533 147.43 188.05 147.541C189.121 147.651 189.638 148.095 189.564 148.243Z" fill="black" stroke="black" stroke-width="0.981456" stroke-miterlimit="10"/>
<path d="M162.381 130.351C162.122 130.573 161.088 129.87 159.981 128.835C158.873 127.8 158.06 126.839 158.245 126.58C158.43 126.321 159.611 126.876 160.793 127.948C161.938 129.02 162.602 130.129 162.381 130.351Z" fill="black" stroke="black" stroke-width="0.981456" stroke-miterlimit="10"/>
<path d="M164.741 127.727C164.445 127.912 163.633 127.21 162.71 126.248C161.786 125.287 161.122 124.474 161.306 124.178C161.491 123.919 162.599 124.363 163.559 125.398C164.593 126.47 165.036 127.579 164.741 127.727Z" fill="black" stroke="black" stroke-width="0.981456" stroke-miterlimit="10"/>
<path d="M179.814 108.466C179.925 108.577 177.783 110.647 174.164 113.864C170.582 117.08 165.523 121.405 159.799 126.026C154.076 130.647 148.832 134.714 144.955 137.597C141.077 140.444 138.603 142.144 138.529 141.996C138.418 141.849 140.708 139.963 144.438 136.932C148.167 133.9 153.337 129.723 159.061 125.102C164.748 120.444 169.917 116.267 173.647 113.235C177.377 110.167 179.703 108.318 179.814 108.466Z" fill="black" stroke="black" stroke-width="0.981456" stroke-miterlimit="10"/>
<path d="M176.415 103.624C176.526 103.735 174.347 105.805 170.765 108.948C167.147 112.09 162.087 116.378 156.364 120.962C150.64 125.546 145.396 129.539 141.519 132.385C137.642 135.232 135.204 136.895 135.094 136.748C134.983 136.6 137.272 134.714 141.002 131.72C144.732 128.726 149.902 124.585 155.625 120.038C161.312 115.454 166.482 111.314 170.211 108.319C173.978 105.288 176.304 103.476 176.415 103.624Z" fill="black" stroke="black" stroke-width="0.981456" stroke-miterlimit="10"/>
<path d="M127.82 155.787C127.783 155.75 127.857 155.676 128.005 155.528C128.153 155.38 128.374 155.195 128.633 154.937C129.15 154.419 129.814 153.569 130.368 152.423C130.922 151.277 131.291 149.724 131.07 148.061C130.848 146.434 129.925 144.733 128.411 143.55C127.673 142.959 126.823 142.515 125.974 142.257C125.125 141.998 124.238 141.924 123.426 142.035C121.764 142.183 120.287 142.848 119.105 143.403C118.515 143.698 117.961 143.957 117.481 144.216C117.001 144.475 116.594 144.659 116.262 144.844C115.634 145.177 115.45 145.547 115.376 145.51C115.339 145.51 115.339 145.362 115.413 145.177C115.487 144.992 115.708 144.696 116.004 144.438C116.299 144.179 116.705 143.92 117.148 143.624C117.591 143.329 118.108 142.996 118.699 142.626C119.881 141.961 121.395 141.184 123.315 140.926C124.238 140.815 125.309 140.852 126.306 141.147C127.34 141.406 128.3 141.924 129.187 142.626C130.922 143.994 131.993 146.027 132.215 147.95C132.399 149.872 131.882 151.609 131.181 152.829C130.479 154.086 129.63 154.863 128.965 155.306C128.633 155.528 128.374 155.676 128.19 155.75C127.931 155.787 127.82 155.824 127.82 155.787Z" fill="black" stroke="black" stroke-width="0.981456" stroke-miterlimit="10"/>
<path d="M134.945 136.747C134.871 136.821 134.575 136.637 134.058 136.341C133.541 136.045 132.766 135.675 131.732 135.38C130.698 135.121 129.442 134.973 128.076 135.084C126.71 135.232 125.196 135.638 123.756 136.378C122.315 137.08 121.097 138.041 120.063 139.039C119.029 140.001 118.217 140.999 117.552 141.886C116.222 143.623 115.521 144.806 115.373 144.733C115.225 144.659 115.669 143.328 116.85 141.405C117.441 140.444 118.217 139.335 119.287 138.263C120.321 137.191 121.651 136.119 123.239 135.306C124.826 134.529 126.488 134.086 128.002 134.012C129.553 133.901 130.919 134.197 131.99 134.603C133.061 135.01 133.837 135.564 134.317 135.971C134.797 136.378 134.981 136.673 134.945 136.747Z" fill="black" stroke="black" stroke-width="0.981456" stroke-miterlimit="10"/>
<path d="M138.898 141.665C138.972 141.628 139.157 141.887 139.378 142.367C139.6 142.848 139.821 143.624 139.932 144.586C140.043 145.547 140.006 146.73 139.711 147.987C139.415 149.244 138.861 150.574 137.938 151.794C137.015 152.977 135.907 153.902 134.799 154.53C133.691 155.158 132.547 155.528 131.624 155.676C130.663 155.824 129.888 155.824 129.371 155.75C128.854 155.676 128.559 155.565 128.559 155.491C128.559 155.306 129.74 155.343 131.439 154.826C132.288 154.567 133.285 154.16 134.245 153.569C135.242 152.94 136.203 152.127 137.015 151.055C137.79 149.983 138.344 148.837 138.64 147.691C138.972 146.582 139.083 145.51 139.083 144.623C139.083 142.848 138.714 141.739 138.898 141.665Z" fill="black" stroke="black" stroke-width="0.981456" stroke-miterlimit="10"/>
<path d="M184.315 86.5447C184.389 86.7296 183.318 87.1362 181.989 88.3192C181.324 88.9107 180.585 89.687 179.884 90.6112C179.182 91.5354 178.407 92.6445 177.779 93.8275C177.114 95.0104 176.634 96.2304 176.376 97.3394C176.117 98.4485 176.043 99.5205 176.08 100.408C176.191 102.182 176.708 103.217 176.523 103.291C176.45 103.328 176.228 103.106 175.969 102.663C175.711 102.182 175.416 101.48 175.231 100.519C175.083 99.5575 175.046 98.3745 175.305 97.1176C175.526 95.8607 176.043 94.5298 176.745 93.2729C177.447 91.979 178.259 90.87 179.071 89.9458C179.884 88.9846 180.733 88.2083 181.546 87.6907C182.321 87.1362 183.06 86.8405 183.577 86.6556C183.983 86.4708 184.278 86.4708 184.315 86.5447Z" fill="black" stroke="black" stroke-width="0.981456" stroke-miterlimit="10"/>
<path d="M197.79 101.184C197.864 101.184 197.975 101.48 197.938 102.071C197.901 102.663 197.68 103.476 197.126 104.326C196.867 104.77 196.498 105.214 196.092 105.62C195.87 105.842 195.649 106.027 195.427 106.249C195.169 106.434 194.947 106.692 194.689 106.877C193.618 107.69 192.362 108.393 190.885 108.91C189.445 109.428 188.005 109.687 186.675 109.724C185.346 109.798 184.164 109.65 183.204 109.465C181.247 109.021 180.213 108.356 180.287 108.208C180.361 108.023 181.505 108.43 183.352 108.615C185.198 108.8 187.82 108.726 190.516 107.764C191.845 107.284 193.064 106.655 194.061 105.99C194.319 105.842 194.541 105.62 194.799 105.472C195.021 105.288 195.242 105.14 195.464 104.955C195.87 104.585 196.203 104.252 196.498 103.883C197.089 103.18 197.384 102.515 197.569 102.034C197.643 101.48 197.68 101.184 197.79 101.184Z" fill="black" stroke="black" stroke-width="0.981456" stroke-miterlimit="10"/>
<path d="M197.204 100.924C197.204 100.924 197.241 100.887 197.315 100.887C197.388 100.887 197.499 100.961 197.499 101.109C197.536 101.257 197.499 101.405 197.425 101.553C197.352 101.7 197.241 101.848 197.056 101.996C196.613 102.292 195.948 102.625 195.136 102.92C194.323 103.179 193.29 103.364 192.145 103.364C191 103.364 189.745 103.142 188.489 102.625C187.233 102.107 186.015 101.257 185.055 100.148C183.725 98.632 182.913 96.8206 182.691 95.1201C182.433 93.4195 182.654 91.8669 182.913 90.6469C183.171 89.427 183.541 88.4658 183.799 87.8004C184.058 87.135 184.242 86.8022 184.316 86.8392C184.39 86.8762 184.353 87.2459 184.242 87.9482C184.132 88.6137 183.91 89.6118 183.762 90.7948C183.615 91.9778 183.504 93.4195 183.799 94.9352C184.058 96.4509 184.796 98.0405 185.978 99.3714C186.864 100.37 187.898 101.109 188.969 101.626C190.04 102.144 191.185 102.366 192.182 102.44C194.25 102.588 195.874 102.033 196.835 101.663C197.056 101.589 197.241 101.331 197.278 101.22C197.315 101.035 197.204 100.998 197.204 100.924Z" fill="black" stroke="black" stroke-width="0.981456" stroke-miterlimit="10"/>
<path d="M152.816 121.923C152.557 122.145 147.24 117.006 140.925 110.426C134.611 103.846 129.663 98.3005 129.884 98.0787C130.106 97.8569 135.46 102.995 141.775 109.576C148.126 116.193 153.038 121.701 152.816 121.923Z" fill="black" stroke="black" stroke-width="0.981456" stroke-miterlimit="10"/>
<path d="M156.326 119.742C156.068 119.964 150.898 114.64 144.768 107.838C138.638 101.036 133.875 95.3428 134.133 95.1209C134.392 94.8991 139.561 100.223 145.691 107.025C151.784 113.827 156.548 119.52 156.326 119.742Z" fill="black" stroke="black" stroke-width="0.981456" stroke-miterlimit="10"/>
<path d="M126.266 100.852C126.044 100.593 126.598 99.7432 127.521 98.9669C128.444 98.1905 129.33 97.7469 129.552 97.9687C129.774 98.2275 129.22 99.0778 128.297 99.8541C127.373 100.63 126.487 101.111 126.266 100.852Z" fill="black" stroke="black" stroke-width="0.981456" stroke-miterlimit="10"/>
<path d="M122.983 86.9888C123.315 86.9888 123.537 90.0941 124.423 93.8279C125.272 97.5617 126.417 100.445 126.122 100.593C125.974 100.667 125.494 100.002 124.903 98.8555C124.312 97.7095 123.684 96.009 123.241 94.0867C122.798 92.1643 122.65 90.3529 122.65 89.059C122.65 87.8021 122.835 86.9888 122.983 86.9888Z" fill="black" stroke="black" stroke-width="0.981456" stroke-miterlimit="10"/>
<path d="M136.574 92.8289C136.427 92.9398 135.836 92.4222 134.58 91.9416C133.952 91.6828 133.177 91.4241 132.365 91.0914C131.515 90.7586 130.592 90.389 129.632 89.9453C125.791 88.2818 122.8 86.6921 122.911 86.3964C123.059 86.1006 126.272 87.2097 130.112 88.8733C131.072 89.2799 131.995 89.6866 132.808 90.0932C133.62 90.4999 134.359 90.8326 134.986 91.2023C135.614 91.5719 136.057 91.9416 136.316 92.2743C136.574 92.5331 136.648 92.7549 136.574 92.8289Z" fill="black" stroke="black" stroke-width="0.981456" stroke-miterlimit="10"/>
<path d="M136.233 92.7553C136.455 92.9771 136.122 93.7165 135.494 94.3449C134.83 94.9734 134.128 95.3061 133.907 95.0843C133.685 94.8625 134.017 94.1231 134.645 93.4947C135.31 92.8293 136.011 92.4965 136.233 92.7553Z" fill="black" stroke="black" stroke-width="0.981456" stroke-miterlimit="10"/>
<path d="M193.321 178.301C193.654 178.301 193.912 182.108 193.912 186.803C193.912 191.498 193.654 195.306 193.321 195.306C192.989 195.306 192.73 191.498 192.73 186.803C192.73 182.108 192.989 178.301 193.321 178.301Z" fill="black" stroke="black" stroke-width="0.981456" stroke-miterlimit="10"/>
<path d="M218.991 177.781C233.369 177.781 245.024 177.516 245.024 177.19C245.024 176.863 233.369 176.598 218.991 176.598C204.613 176.598 192.957 176.863 192.957 177.19C192.957 177.516 204.613 177.781 218.991 177.781Z" fill="black" stroke="black" stroke-width="0.981456" stroke-miterlimit="10"/>
<path d="M219.735 195.895C234.113 195.895 245.769 195.631 245.769 195.304C245.769 194.977 234.113 194.712 219.735 194.712C205.357 194.712 193.701 194.977 193.701 195.304C193.701 195.631 205.357 195.895 219.735 195.895Z" fill="black" stroke="black" stroke-width="0.981456" stroke-miterlimit="10"/>
<path d="M245.065 194.567C244.733 194.567 244.475 190.759 244.475 186.064C244.475 181.369 244.733 177.562 245.065 177.562C245.398 177.562 245.656 181.369 245.656 186.064C245.656 190.759 245.398 194.567 245.065 194.567Z" fill="black" stroke="black" stroke-width="0.981456" stroke-miterlimit="10"/>
<path d="M231.282 173.421C239.461 173.421 246.09 173.156 246.09 172.829C246.09 172.503 239.461 172.238 231.282 172.238C223.104 172.238 216.475 172.503 216.475 172.829C216.475 173.156 223.104 173.421 231.282 173.421Z" fill="black" stroke="black" stroke-width="0.981456" stroke-miterlimit="10"/>
<path d="M236.208 170.166C240.695 170.166 244.332 169.901 244.332 169.574C244.332 169.248 240.695 168.983 236.208 168.983C231.721 168.983 228.084 169.248 228.084 169.574C228.084 169.901 231.721 170.166 236.208 170.166Z" fill="black" stroke="black" stroke-width="0.981456" stroke-miterlimit="10"/>
<path d="M246.834 165.619C246.834 165.952 240.445 166.211 232.543 166.211C224.64 166.211 218.252 165.952 218.252 165.619C218.252 165.287 224.64 165.028 232.543 165.028C240.445 165.028 246.834 165.287 246.834 165.619Z" fill="black" stroke="black" stroke-width="0.981456" stroke-miterlimit="10"/>
<path d="M213.374 101.627C213.485 101.479 213.928 101.775 214.63 101.627C214.962 101.553 215.331 101.406 215.516 101.11C215.627 100.962 215.664 100.814 215.664 100.629C215.664 100.444 215.59 100.26 215.479 100.075C215.257 99.705 214.888 99.5571 214.63 99.5941C214.371 99.6311 214.113 99.9638 214.002 100.26C213.891 100.555 213.928 100.814 213.965 100.999C214.002 101.184 214.076 101.295 214.039 101.406C214.002 101.479 213.817 101.479 213.596 101.295C213.374 101.11 213.153 100.666 213.19 100.149C213.19 99.8898 213.263 99.5941 213.448 99.2983C213.596 99.0026 213.891 98.7069 214.297 98.559C214.704 98.4111 215.184 98.4481 215.59 98.5959C215.996 98.7808 216.328 99.0765 216.55 99.4462C216.771 99.8159 216.882 100.223 216.882 100.666C216.882 101.11 216.661 101.516 216.402 101.812C215.885 102.404 215.184 102.515 214.667 102.478C214.15 102.441 213.78 102.219 213.596 102.034C213.337 101.849 213.3 101.664 213.374 101.627Z" fill="black" stroke="black" stroke-width="0.981456" stroke-miterlimit="10"/>
<path d="M214.968 112.978C215.042 112.83 215.522 112.978 216.15 112.756C216.445 112.645 216.777 112.46 216.925 112.164C216.999 112.017 217.036 111.869 217.036 111.721C217.036 111.573 216.962 111.351 216.851 111.203C216.63 110.871 216.334 110.723 216.076 110.76C215.854 110.797 215.596 111.055 215.485 111.314C215.374 111.573 215.374 111.832 215.374 111.98C215.411 112.164 215.448 112.275 215.411 112.349C215.374 112.423 215.19 112.423 214.968 112.238C214.746 112.054 214.562 111.61 214.636 111.129C214.673 110.871 214.746 110.612 214.931 110.353C215.116 110.094 215.374 109.835 215.78 109.688C216.187 109.54 216.593 109.614 216.999 109.761C217.368 109.946 217.701 110.205 217.885 110.575C218.107 110.907 218.218 111.314 218.218 111.721C218.218 112.127 218.07 112.534 217.848 112.793C217.405 113.384 216.777 113.569 216.297 113.606C215.817 113.643 215.448 113.495 215.227 113.347C215.005 113.2 214.931 113.052 214.968 112.978Z" fill="black" stroke="black" stroke-width="0.981456" stroke-miterlimit="10"/>
<path d="M255.885 99.705C255.885 100.038 248.278 100.296 238.899 100.296C229.519 100.296 221.912 100.038 221.912 99.705C221.912 99.3723 229.519 99.1135 238.899 99.1135C248.278 99.0765 255.885 99.3723 255.885 99.705Z" fill="black" stroke="black" stroke-width="0.981456" stroke-miterlimit="10"/>
<path d="M245.027 107.653C245.027 107.986 240.485 108.244 234.909 108.244C229.333 108.244 224.791 107.986 224.791 107.653C224.791 107.32 229.333 107.062 234.909 107.062C240.485 107.062 245.027 107.32 245.027 107.653Z" fill="black" stroke="black" stroke-width="0.981456" stroke-miterlimit="10"/>
<path d="M251.196 115.267C251.196 115.599 244.475 115.858 236.203 115.858C227.932 115.858 221.211 115.599 221.211 115.267C221.211 114.934 227.932 114.675 236.203 114.675C244.475 114.675 251.196 114.934 251.196 115.267Z" fill="black" stroke="black" stroke-width="0.981456" stroke-miterlimit="10"/>
<path d="M242.882 118.89C242.882 119.223 239.485 119.482 235.312 119.482C231.139 119.482 227.742 119.223 227.742 118.89C227.742 118.558 231.139 118.299 235.312 118.299C239.485 118.299 242.882 118.558 242.882 118.89Z" fill="black" stroke="black" stroke-width="0.981456" stroke-miterlimit="10"/>
<path d="M159.06 52.3847C210.719 52.3847 252.597 52.1198 252.597 51.7932C252.597 51.4665 210.719 51.2017 159.06 51.2017C107.401 51.2017 65.5234 51.4665 65.5234 51.7932C65.5234 52.1198 107.401 52.3847 159.06 52.3847Z" fill="black" stroke="black" stroke-width="0.981456" stroke-miterlimit="10"/>
<path d="M162.205 35.7504C225.163 35.7504 276.2 35.4856 276.2 35.1589C276.2 34.8322 225.163 34.5674 162.205 34.5674C99.248 34.5674 48.2109 34.8322 48.2109 35.1589C48.2109 35.4856 99.248 35.7504 162.205 35.7504Z" fill="black" stroke="black" stroke-width="0.981456" stroke-miterlimit="10"/>
<path d="M275.567 201.441C275.235 201.441 274.977 164.251 274.977 118.337C274.977 72.4224 275.235 35.2324 275.567 35.2324C275.9 35.2324 276.158 72.4224 276.158 118.337C276.158 164.251 275.9 201.441 275.567 201.441Z" fill="black" stroke="black" stroke-width="0.981456" stroke-miterlimit="10"/>
<path d="M235.463 45.4359C239.623 45.4359 242.996 45.1711 242.996 44.8444C242.996 44.5177 239.623 44.2529 235.463 44.2529C231.302 44.2529 227.93 44.5177 227.93 44.8444C227.93 45.1711 231.302 45.4359 235.463 45.4359Z" fill="black" stroke="black" stroke-width="0.981456" stroke-miterlimit="10"/>
<path d="M265.95 47.7384C266.136 47.4705 263.725 45.4633 260.564 43.2553C257.403 41.0473 254.689 39.4746 254.502 39.7425C254.315 40.0104 256.727 42.0175 259.888 44.2255C263.049 46.4335 265.763 48.0063 265.95 47.7384Z" fill="black" stroke="black" stroke-width="0.981456" stroke-miterlimit="10"/>
<path d="M265.343 39.3728C265.564 39.5946 263.755 41.8127 261.059 44.1047C258.363 46.3968 255.889 47.8385 255.705 47.5797C255.52 47.321 257.625 45.4356 260.284 43.1805C262.942 40.9255 265.121 39.114 265.343 39.3728Z" fill="black" stroke="black" stroke-width="0.981456" stroke-miterlimit="10"/>
<path d="M73.4896 79.962C73.5265 79.888 74.0435 80.1838 75.0036 80.3686C75.2251 80.4426 75.5206 80.4426 75.816 80.4795C76.1114 80.4795 76.4437 80.4795 76.7761 80.4426C77.4777 80.3686 78.2532 80.1468 78.9917 79.7402C79.7672 79.3335 80.5057 78.742 81.0227 77.8918C81.5397 77.0785 81.8351 76.0064 81.7982 74.8973C81.7243 72.6793 80.358 70.2024 78.1793 68.7606C77.6254 68.391 77.0715 68.1322 76.4807 68.0213C75.9268 67.9104 75.3359 67.9473 74.7451 68.1322C73.6373 68.4649 72.6402 69.2412 71.9755 70.1285C71.2739 71.0157 70.8308 72.0508 70.6462 73.012C70.4615 74.0101 70.4985 74.9713 70.72 75.7846C71.1631 77.4851 72.1232 78.6311 72.8618 79.2966C73.6003 79.962 74.1173 80.2208 74.0804 80.3317C74.0435 80.4056 73.4526 80.2947 72.5664 79.6662C71.717 79.0748 70.4984 77.9287 69.9076 76.0434C69.6122 75.1192 69.5014 74.0101 69.6491 72.8641C69.8338 71.7181 70.2769 70.5351 71.0524 69.463C71.8278 68.391 72.9356 67.4668 74.3758 67.0231C75.0774 66.8013 75.8898 66.7274 76.6653 66.8753C77.4408 67.0231 78.1424 67.3559 78.8071 67.7625C81.3181 69.463 82.7952 72.2356 82.8691 74.8973C82.906 76.2282 82.5367 77.4851 81.8351 78.4833C81.1704 79.4814 80.2472 80.1099 79.361 80.5165C78.4747 80.9232 77.5885 81.108 76.813 81.108C76.4437 81.145 76.0745 81.071 75.7421 81.0341C75.4098 80.9601 75.1143 80.9232 74.8559 80.8122C73.8588 80.4426 73.4526 79.999 73.4896 79.962Z" fill="black" stroke="black" stroke-width="0.981456" stroke-miterlimit="10"/>
<path d="M97.6112 65.2502C97.6112 65.5829 93.7707 65.8417 89.081 65.8417C84.3912 65.8417 80.5508 65.5829 80.5508 65.2502C80.5508 64.9175 84.3912 64.6587 89.081 64.6587C93.7707 64.6587 97.6112 64.9175 97.6112 65.2502Z" fill="black" stroke="black" stroke-width="0.981456" stroke-miterlimit="10"/>
<path d="M110.129 70.4265C110.129 70.7592 104.257 71.0179 97.0193 71.0179C89.7816 71.0179 83.9102 70.7592 83.9102 70.4265C83.9102 70.0937 89.7816 69.835 97.0193 69.835C104.257 69.835 110.129 70.0937 110.129 70.4265Z" fill="black" stroke="black" stroke-width="0.981456" stroke-miterlimit="10"/>
<path d="M103.408 75.01C103.408 75.3427 100.417 75.6015 96.6876 75.6015C92.9948 75.6015 89.9668 75.3427 89.9668 75.01C89.9668 74.6772 92.9579 74.4185 96.6876 74.4185C100.417 74.4185 103.408 74.6772 103.408 75.01Z" fill="black" stroke="black" stroke-width="0.981456" stroke-miterlimit="10"/>
<path d="M100.051 79.2995C100.051 79.6322 96.6911 79.891 92.5921 79.891C88.4563 79.891 85.1328 79.6322 85.1328 79.2995C85.1328 78.9668 88.4932 78.708 92.5921 78.708C96.728 78.708 100.051 78.9668 100.051 79.2995Z" fill="black" stroke="black" stroke-width="0.981456" stroke-miterlimit="10"/>
<path d="M45.4698 122.108C45.1374 122.108 44.8789 118.707 44.8789 114.492C44.8789 110.278 45.1374 106.877 45.4698 106.877C45.8021 106.877 46.0606 110.278 46.0606 114.492C46.0606 118.707 45.8021 122.108 45.4698 122.108Z" fill="black" stroke="black" stroke-width="0.981456" stroke-miterlimit="10"/>
<path d="M82.9174 106.505C82.9174 106.838 74.4611 107.097 64.0476 107.097C53.6341 107.097 45.1777 106.838 45.1777 106.505C45.1777 106.172 53.6341 105.914 64.0476 105.914C74.4611 105.914 82.9174 106.172 82.9174 106.505Z" fill="black" stroke="black" stroke-width="0.981456" stroke-miterlimit="10"/>
<path d="M83.2482 121.479C83.2482 121.812 75.0873 122.071 65.043 122.071C54.9619 122.071 46.8379 121.812 46.8379 121.479C46.8379 121.147 54.9988 120.888 65.043 120.888C75.0873 120.851 83.2482 121.147 83.2482 121.479Z" fill="black" stroke="black" stroke-width="0.981456" stroke-miterlimit="10"/>
<path d="M82.2862 120.778C82.6125 120.778 82.877 117.584 82.877 113.643C82.877 109.703 82.6125 106.508 82.2862 106.508C81.9599 106.508 81.6953 109.703 81.6953 113.643C81.6953 117.584 81.9599 120.778 82.2862 120.778Z" fill="black" stroke="black" stroke-width="0.981456" stroke-miterlimit="10"/>
<path d="M99.7158 1.59131C100.048 1.59131 100.307 9.02191 100.307 18.153C100.307 27.2842 100.048 34.7148 99.7158 34.7148C99.3835 34.7148 99.125 27.2842 99.125 18.153C99.125 9.02191 99.3835 1.59131 99.7158 1.59131Z" fill="black" stroke="black" stroke-width="0.981456" stroke-miterlimit="10"/>
<path d="M226.566 2.18299C296.356 2.18299 352.931 1.91817 352.931 1.59149C352.931 1.26482 296.356 1 226.566 1C156.777 1 100.201 1.26482 100.201 1.59149C100.201 1.91817 156.777 2.18299 226.566 2.18299Z" fill="black" stroke="black" stroke-width="0.981456" stroke-miterlimit="10"/>
<path d="M353.376 174.972C353.044 174.972 352.785 136.193 352.785 88.3189C352.785 40.4451 353.044 1.66553 353.376 1.66553C353.708 1.66553 353.967 40.4451 353.967 88.3189C353.967 136.193 353.708 174.972 353.376 174.972Z" fill="black" stroke="black" stroke-width="0.981456" stroke-miterlimit="10"/>
<path d="M353.631 174.713C353.631 175.045 336.386 175.304 315.079 175.304C293.809 175.304 276.527 175.045 276.527 174.713C276.527 174.38 293.772 174.121 315.079 174.121C336.386 174.121 353.631 174.38 353.631 174.713Z" fill="black" stroke="black" stroke-width="0.981456" stroke-miterlimit="10"/>
<path d="M339.375 117.451C339.264 117.599 338.894 117.451 338.341 117.229C337.787 117.044 337.011 116.822 336.162 116.712C335.313 116.601 334.5 116.675 333.909 116.749C333.318 116.822 332.912 116.859 332.838 116.712C332.765 116.564 333.023 116.231 333.651 115.935C333.946 115.787 334.352 115.639 334.796 115.566C335.239 115.492 335.756 115.455 336.273 115.529C336.79 115.603 337.27 115.713 337.713 115.898C338.119 116.083 338.488 116.305 338.747 116.527C339.301 116.933 339.485 117.34 339.375 117.451Z" fill="black" stroke="black" stroke-width="0.981456" stroke-miterlimit="10"/>
<path d="M333.099 117.043C332.84 117.264 332.139 116.821 331.548 116.044C330.957 115.305 330.662 114.492 330.92 114.307C331.179 114.122 331.88 114.529 332.471 115.305C333.062 116.044 333.357 116.858 333.099 117.043Z" fill="black" stroke="black" stroke-width="0.981456" stroke-miterlimit="10"/>
<path d="M327.747 117.671C327.599 117.634 327.525 117.339 327.599 116.932C327.673 116.525 327.932 116.008 328.338 115.527C328.744 115.047 329.224 114.751 329.63 114.603C330.036 114.455 330.295 114.492 330.369 114.64C330.517 114.936 329.889 115.564 329.224 116.303C328.596 117.08 328.079 117.782 327.747 117.671Z" fill="black" stroke="black" stroke-width="0.981456" stroke-miterlimit="10"/>
<path d="M330.703 119.853C330.666 120.001 330.407 120.112 330.038 120.075C329.669 120.038 329.152 119.853 328.709 119.446C328.266 119.04 328.007 118.559 327.933 118.189C327.859 117.82 327.933 117.561 328.081 117.487C328.229 117.413 328.45 117.561 328.672 117.783C328.893 118.005 329.189 118.263 329.484 118.559C329.817 118.855 330.112 119.077 330.333 119.298C330.555 119.483 330.74 119.668 330.703 119.853Z" fill="black" stroke="black" stroke-width="0.981456" stroke-miterlimit="10"/>
<path d="M328.85 123.733C328.702 123.733 328.554 123.474 328.48 123.105C328.406 122.698 328.443 122.181 328.591 121.589C328.776 121.035 329.034 120.554 329.293 120.258C329.551 119.962 329.81 119.852 329.957 119.926C330.253 120.11 330.031 120.961 329.736 121.922C329.477 122.883 329.219 123.733 328.85 123.733Z" fill="black" stroke="black" stroke-width="0.981456" stroke-miterlimit="10"/>
<path d="M325.267 123.698C325.193 123.55 325.267 123.291 325.562 123.033C325.858 122.774 326.338 122.515 326.892 122.441C327.483 122.33 327.999 122.441 328.369 122.589C328.738 122.737 328.886 122.959 328.849 123.106C328.738 123.439 327.963 123.476 327.076 123.624C326.227 123.735 325.488 123.957 325.267 123.698Z" fill="black" stroke="black" stroke-width="0.981456" stroke-miterlimit="10"/>
<path d="M326.416 127.763C326.268 127.837 326.009 127.726 325.751 127.394C325.455 127.098 325.197 126.58 325.012 125.989C324.828 125.397 324.828 124.806 324.902 124.399C324.975 123.993 325.123 123.734 325.308 123.734C325.64 123.734 325.862 124.621 326.157 125.656C326.453 126.691 326.711 127.579 326.416 127.763Z" fill="black" stroke="black" stroke-width="0.981456" stroke-miterlimit="10"/>
<path d="M329.813 126.729C329.961 127.024 329.296 127.616 328.262 127.838C327.265 128.06 326.416 127.801 326.416 127.468C326.416 127.135 327.155 126.84 328.004 126.655C328.89 126.47 329.666 126.433 329.813 126.729Z" fill="black" stroke="black" stroke-width="0.981456" stroke-miterlimit="10"/>
<path d="M332.214 130.241C332.14 130.389 331.844 130.426 331.401 130.241C330.958 130.093 330.404 129.724 329.924 129.206C329.444 128.689 329.149 128.097 329.075 127.617C328.964 127.173 329.038 126.84 329.186 126.803C329.518 126.692 330.072 127.543 330.847 128.393C331.586 129.317 332.361 129.945 332.214 130.241Z" fill="black" stroke="black" stroke-width="0.981456" stroke-miterlimit="10"/>
<path d="M331.138 133.126C330.806 133.052 330.695 132.313 330.88 131.426C331.065 130.538 331.471 129.91 331.803 129.984C332.135 130.058 332.246 130.797 332.062 131.684C331.877 132.572 331.434 133.2 331.138 133.126Z" fill="black" stroke="black" stroke-width="0.981456" stroke-miterlimit="10"/>
<path d="M336.677 133.791C336.714 133.939 336.455 134.198 335.902 134.382C335.385 134.567 334.572 134.641 333.723 134.493C332.873 134.308 332.172 133.939 331.766 133.569C331.359 133.199 331.175 132.867 331.286 132.719C331.507 132.46 332.578 133.052 333.981 133.31C335.385 133.606 336.603 133.458 336.677 133.791Z" fill="black" stroke="black" stroke-width="0.981456" stroke-miterlimit="10"/>
<path d="M336.683 130.647C337.016 130.61 337.348 131.349 337.311 132.273C337.237 133.198 336.794 133.863 336.499 133.789C336.166 133.715 336.055 133.013 336.129 132.199C336.166 131.386 336.351 130.684 336.683 130.647Z" fill="black" stroke="black" stroke-width="0.981456" stroke-miterlimit="10"/>
<path d="M341.07 127.284C341.218 127.321 341.329 127.691 341.144 128.319C341.07 128.615 340.885 128.947 340.664 129.28C340.405 129.613 340.073 129.946 339.704 130.204C339.298 130.463 338.891 130.648 338.485 130.722C338.079 130.796 337.71 130.833 337.414 130.796C336.786 130.722 336.454 130.463 336.491 130.315C336.528 130.13 336.86 130.093 337.34 129.946C337.562 129.872 337.857 129.798 338.153 129.65C338.448 129.539 338.744 129.354 339.039 129.169C339.334 128.984 339.593 128.763 339.851 128.541C340.073 128.319 340.258 128.097 340.442 127.912C340.701 127.543 340.885 127.247 341.07 127.284Z" fill="black" stroke="black" stroke-width="0.981456" stroke-miterlimit="10"/>
<path d="M344.73 127.985C344.767 128.318 343.917 128.651 342.846 128.503C341.775 128.355 341.037 127.8 341.148 127.505C341.258 127.172 342.071 127.172 342.994 127.32C343.917 127.431 344.693 127.652 344.73 127.985Z" fill="black" stroke="black" stroke-width="0.981456" stroke-miterlimit="10"/>
<path d="M345.651 123.919C345.614 124.251 344.839 124.436 343.915 124.288C342.992 124.14 342.291 123.808 342.328 123.475C342.364 123.142 343.14 122.957 344.063 123.105C344.949 123.216 345.688 123.586 345.651 123.919Z" fill="black" stroke="black" stroke-width="0.981456" stroke-miterlimit="10"/>
<path d="M344.914 127.542C344.582 127.505 344.36 126.655 344.434 125.582C344.508 124.547 344.84 123.697 345.173 123.734C345.505 123.771 345.727 124.621 345.653 125.693C345.579 126.765 345.247 127.542 344.914 127.542Z" fill="black" stroke="black" stroke-width="0.981456" stroke-miterlimit="10"/>
<path d="M340.96 114.345C341.181 114.603 340.849 115.269 340.295 115.971C339.741 116.674 339.187 117.154 338.892 117.006C338.596 116.859 338.744 116.008 339.335 115.232C339.963 114.456 340.738 114.086 340.96 114.345Z" fill="black" stroke="black" stroke-width="0.981456" stroke-miterlimit="10"/>
<path d="M343.395 116.564C343.099 116.675 342.582 116.157 342.029 115.566C341.475 114.974 340.995 114.42 341.142 114.124C341.216 113.976 341.475 113.939 341.807 114.05C342.139 114.161 342.545 114.383 342.915 114.789C343.284 115.159 343.469 115.602 343.543 115.935C343.616 116.268 343.543 116.49 343.395 116.564Z" fill="black" stroke="black" stroke-width="0.981456" stroke-miterlimit="10"/>
<path d="M341.402 119.04C341.254 118.744 341.66 118.264 342.14 117.746C342.657 117.266 343.137 116.896 343.433 117.044C343.581 117.118 343.618 117.339 343.544 117.635C343.47 117.931 343.285 118.301 342.953 118.596C342.621 118.892 342.251 119.114 341.956 119.151C341.697 119.262 341.476 119.188 341.402 119.04Z" fill="black" stroke="black" stroke-width="0.981456" stroke-miterlimit="10"/>
<path d="M342.032 123.956C341.699 123.919 341.626 122.736 341.33 121.405C341.072 120.074 340.702 118.965 340.961 118.78C341.109 118.706 341.404 118.891 341.699 119.298C341.995 119.704 342.327 120.37 342.475 121.146C342.623 121.922 342.623 122.662 342.475 123.142C342.401 123.697 342.216 123.956 342.032 123.956Z" fill="black" stroke="black" stroke-width="0.981456" stroke-miterlimit="10"/>
<path d="M333.762 125.028C333.836 124.991 333.984 125.176 334.242 125.324C334.501 125.509 334.944 125.657 335.498 125.62C335.756 125.583 336.015 125.509 336.273 125.324C336.532 125.139 336.716 124.88 336.864 124.585C337.012 124.289 337.123 123.882 337.123 123.512C337.123 123.143 337.049 122.736 336.864 122.44C336.679 122.145 336.458 121.997 336.126 121.96C335.793 121.923 335.461 121.997 335.165 122.145C334.575 122.477 334.168 123.069 333.91 123.623C333.651 124.104 333.651 124.621 333.762 124.843C333.836 125.102 334.058 125.176 334.021 125.287C334.021 125.324 333.947 125.361 333.836 125.361C333.725 125.361 333.541 125.287 333.356 125.102C333.024 124.732 332.876 124.067 333.098 123.328C333.208 122.995 333.319 122.625 333.578 122.219C333.799 121.849 334.131 121.442 334.575 121.183C335.055 120.888 335.609 120.74 336.236 120.814C336.532 120.851 336.864 120.962 337.16 121.146C337.455 121.331 337.713 121.59 337.861 121.886C338.193 122.477 338.267 123.069 338.23 123.623C338.193 124.178 338.046 124.732 337.787 125.176C337.529 125.62 337.16 125.989 336.753 126.248C336.31 126.507 335.867 126.581 335.461 126.544C334.648 126.507 334.131 126.063 333.873 125.731C333.651 125.287 333.688 125.028 333.762 125.028Z" fill="black" stroke="black" stroke-width="0.981456" stroke-miterlimit="10"/>
<path d="M329.147 116.562C329.479 116.599 329.627 117.93 329.479 119.52C329.331 121.11 328.925 122.404 328.593 122.367C328.26 122.33 328.113 120.999 328.26 119.409C328.408 117.819 328.814 116.562 329.147 116.562Z" fill="black" stroke="black" stroke-width="0.981456" stroke-miterlimit="10"/>
<path d="M343.065 115.601C343.028 115.601 342.954 115.194 342.88 114.381C342.806 113.568 342.732 112.385 342.622 110.832C342.4 107.727 342.105 103.253 341.662 97.7451C341.218 92.2369 340.628 85.6566 339.852 78.3738C339.446 74.751 339.003 70.9063 338.523 66.9876C338.264 65.0283 338.043 62.9951 337.71 60.9988C337.563 60.0007 337.341 58.9655 337.12 57.9674L336.935 57.228C336.861 56.9693 336.824 56.7105 336.75 56.5257C336.676 56.3038 336.603 56.119 336.492 56.0081C336.455 55.9342 336.418 55.9342 336.381 55.8972C336.344 55.8972 336.307 55.8602 336.307 55.8602C336.27 55.8602 336.123 55.8972 335.975 56.0451C335.901 56.119 335.827 56.1929 335.716 56.2669C335.642 56.3408 335.532 56.4147 335.458 56.5257C335.162 56.8953 334.867 57.265 334.645 57.7086C334.202 58.5589 333.907 59.5201 333.722 60.4812C333.501 61.4424 333.39 62.4775 333.242 63.4757C333.095 64.4738 332.947 65.4719 332.836 66.4331C332.356 70.3887 332.061 74.1964 331.876 77.8563C331.47 85.139 331.248 91.7563 330.916 97.3015C330.583 102.847 330.103 107.32 329.66 110.388C329.439 111.941 329.217 113.124 329.069 113.9C328.922 114.714 328.811 115.12 328.774 115.12C328.737 115.12 328.737 114.677 328.848 113.863C328.922 113.05 329.069 111.867 329.217 110.314C329.549 107.246 329.882 102.773 330.103 97.2646C330.362 91.7193 330.436 85.139 330.805 77.8193C330.99 74.1595 331.248 70.3148 331.728 66.3222C331.839 65.3241 331.987 64.3259 332.097 63.3278C332.245 62.3297 332.356 61.2945 332.578 60.2594C332.799 59.2243 333.095 58.1522 333.611 57.1541C333.87 56.6735 334.202 56.1929 334.572 55.7493C334.682 55.6384 334.756 55.5275 334.867 55.4166C334.978 55.3057 335.052 55.2318 335.199 55.1209C335.458 54.936 335.79 54.6772 336.27 54.6772C336.492 54.6772 336.75 54.7142 336.935 54.8251C337.156 54.936 337.304 55.0839 337.415 55.2318C337.637 55.5275 337.784 55.8233 337.858 56.119C337.969 56.4147 338.006 56.6735 338.08 56.9323L338.264 57.7086C338.486 58.7437 338.67 59.7789 338.855 60.814C339.187 62.8472 339.446 64.8805 339.668 66.8767C340.148 70.8323 340.554 74.677 340.923 78.2999C341.662 85.5826 342.142 92.163 342.474 97.7082C342.806 103.253 342.991 107.727 343.065 110.832C343.102 112.385 343.102 113.568 343.102 114.418C343.139 115.194 343.102 115.601 343.065 115.601Z" fill="black" stroke="black" stroke-width="0.981456" stroke-miterlimit="10"/>
<path d="M343.623 123.069C343.291 123.106 342.848 121.997 342.7 120.555C342.589 119.113 342.848 117.93 343.18 117.93C343.512 117.93 343.808 119.076 343.918 120.444C344.029 121.849 343.918 122.995 343.623 123.069Z" fill="black" stroke="black" stroke-width="0.981456" stroke-miterlimit="10"/>
<path d="M334.019 61.7012C333.945 61.7382 333.76 61.4794 333.576 60.9988C333.391 60.4813 333.206 59.7049 333.317 58.7068C333.354 58.2262 333.502 57.6717 333.723 57.1172C333.945 56.5626 334.277 55.9342 334.979 55.5275C335.311 55.3057 335.828 55.1948 336.271 55.3057C336.493 55.3427 336.714 55.4536 336.899 55.6015C337.084 55.7493 337.231 55.8972 337.379 56.082C337.859 56.7475 338.044 57.5238 338.191 58.1892C338.339 58.8916 338.45 59.668 338.376 60.4073C338.302 61.1836 337.97 61.886 337.49 62.4406C337.01 62.9951 336.271 63.3278 335.607 63.3278C334.942 63.3278 334.351 63.106 333.908 62.7363C333.465 62.3666 333.243 61.923 333.132 61.4794C333.022 61.0727 333.059 60.7031 333.132 60.4073C333.28 59.8528 333.539 59.631 333.612 59.668C333.686 59.7049 333.576 60.0007 333.612 60.4443C333.612 60.6661 333.649 60.9618 333.797 61.2576C333.908 61.5533 334.129 61.8121 334.425 62.0339C334.72 62.2187 335.127 62.3297 335.57 62.2927C335.976 62.2557 336.382 62.0339 336.677 61.6642C336.973 61.2945 337.194 60.777 337.231 60.2225C337.268 59.668 337.194 59.0395 337.047 58.3741C336.899 57.7086 336.714 57.0802 336.456 56.6735C336.308 56.4887 336.16 56.3778 336.013 56.3408C335.865 56.3039 335.717 56.3039 335.533 56.4148C335.348 56.4887 335.163 56.6735 335.016 56.8584C334.868 57.0432 334.757 57.2281 334.646 57.4868C334.425 57.9305 334.277 58.3741 334.203 58.7807C334.019 59.631 334.056 60.3334 334.056 60.814C334.056 61.3685 334.093 61.6642 334.019 61.7012Z" fill="black" stroke="black" stroke-width="0.981456" stroke-miterlimit="10"/>
<path d="M335.866 61.037C335.682 61.037 335.534 60.9261 335.423 60.7783C335.276 60.6304 335.165 60.4086 335.054 60.1868C334.943 59.965 334.869 59.7432 334.869 59.5213C334.832 59.2995 334.869 59.1147 334.98 59.0038C335.091 58.8929 335.312 58.8559 335.534 59.0038C335.756 59.1147 336.014 59.3735 336.162 59.7062C336.309 60.0389 336.346 60.4086 336.272 60.6304C336.162 60.8892 336.014 61.037 335.866 61.037Z" fill="black" stroke="black" stroke-width="0.981456" stroke-miterlimit="10"/>
<path d="M222.98 16.0091C284.041 16.0091 333.54 15.7443 333.54 15.4177C333.54 15.091 284.041 14.8262 222.98 14.8262C161.919 14.8262 112.42 15.091 112.42 15.4177C112.42 15.7443 161.919 16.0091 222.98 16.0091Z" fill="black" stroke="black" stroke-width="0.981456" stroke-miterlimit="10"/>
<path d="M296.101 31.2383C295.768 31.2383 295.51 29.4639 295.51 27.2827C295.51 25.1016 295.768 23.3271 296.101 23.3271C296.433 23.3271 296.691 25.1016 296.691 27.2827C296.691 29.4639 296.433 31.2383 296.101 31.2383Z" fill="black" stroke="black" stroke-width="0.981456" stroke-miterlimit="10"/>
<path d="M313.232 23.9208C322.675 23.9208 330.329 23.656 330.329 23.3293C330.329 23.0026 322.675 22.7378 313.232 22.7378C303.79 22.7378 296.135 23.0026 296.135 23.3293C296.135 23.656 303.79 23.9208 313.232 23.9208Z" fill="black" stroke="black" stroke-width="0.981456" stroke-miterlimit="10"/>
<path d="M312.562 31.8304C321.821 31.8304 329.327 31.5656 329.327 31.239C329.327 30.9123 321.821 30.6475 312.562 30.6475C303.303 30.6475 295.797 30.9123 295.797 31.239C295.797 31.5656 303.303 31.8304 312.562 31.8304Z" fill="black" stroke="black" stroke-width="0.981456" stroke-miterlimit="10"/>
<path d="M329.37 30.2422C329.038 30.2422 328.779 28.5416 328.779 26.4714C328.779 24.4012 329.038 22.7007 329.37 22.7007C329.702 22.7007 329.961 24.4012 329.961 26.4714C329.961 28.5416 329.702 30.2422 329.37 30.2422Z" fill="black" stroke="black" stroke-width="0.981456" stroke-miterlimit="10"/>
<path d="M315.185 40.7762C315.511 40.7762 315.775 39.4521 315.775 37.8188C315.775 36.1854 315.511 34.8613 315.185 34.8613C314.858 34.8613 314.594 36.1854 314.594 37.8188C314.594 39.4521 314.858 40.7762 315.185 40.7762Z" fill="black" stroke="black" stroke-width="0.981456" stroke-miterlimit="10"/>
<path d="M325.558 35.7865C331.105 35.7865 335.602 35.5217 335.602 35.195C335.602 34.8683 331.105 34.6035 325.558 34.6035C320.011 34.6035 315.514 34.8683 315.514 35.195C315.514 35.5217 320.011 35.7865 325.558 35.7865Z" fill="black" stroke="black" stroke-width="0.981456" stroke-miterlimit="10"/>
<path d="M325.088 41.0731C330.533 41.0731 334.948 40.8083 334.948 40.4816C334.948 40.155 330.533 39.8901 325.088 39.8901C319.643 39.8901 315.229 40.155 315.229 40.4816C315.229 40.8083 319.643 41.0731 325.088 41.0731Z" fill="black" stroke="black" stroke-width="0.981456" stroke-miterlimit="10"/>
<path d="M334.61 39.7794C334.937 39.7794 335.201 38.7532 335.201 37.4873C335.201 36.2215 334.937 35.1953 334.61 35.1953C334.284 35.1953 334.02 36.2215 334.02 37.4873C334.02 38.7532 334.284 39.7794 334.61 39.7794Z" fill="black" stroke="black" stroke-width="0.981456" stroke-miterlimit="10"/>
<path d="M318.918 9.3153C321.733 9.3153 324.014 9.05049 324.014 8.72382C324.014 8.39715 321.733 8.13232 318.918 8.13232C316.104 8.13232 313.822 8.39715 313.822 8.72382C313.822 9.05049 316.104 9.3153 318.918 9.3153Z" fill="black" stroke="black" stroke-width="0.981456" stroke-miterlimit="10"/>
<path d="M342.622 11.8676C342.474 12.1634 340.628 11.461 338.597 10.2041C336.566 8.94715 335.089 7.65326 335.273 7.39448C335.458 7.09873 337.194 7.949 339.225 9.16895C341.256 10.4259 342.807 11.5719 342.622 11.8676Z" fill="black" stroke="black" stroke-width="0.981456" stroke-miterlimit="10"/>
<path d="M342.036 7.58005C342.221 7.87579 340.596 9.20665 338.454 10.5745C336.313 11.9423 334.392 12.8295 334.208 12.5338C334.023 12.238 335.648 10.9072 337.79 9.53936C339.968 8.20851 341.852 7.32127 342.036 7.58005Z" fill="black" stroke="black" stroke-width="0.981456" stroke-miterlimit="10"/>
<path d="M292.735 168.244C301.158 168.244 307.986 167.979 307.986 167.653C307.986 167.326 301.158 167.061 292.735 167.061C284.312 167.061 277.484 167.326 277.484 167.653C277.484 167.979 284.312 168.244 292.735 168.244Z" fill="black" stroke="black" stroke-width="0.981456" stroke-miterlimit="10"/>
<path d="M295.36 166.211C300.092 166.211 303.927 165.946 303.927 165.619C303.927 165.293 300.092 165.028 295.36 165.028C290.629 165.028 286.793 165.293 286.793 165.619C286.793 165.946 290.629 166.211 295.36 166.211Z" fill="black" stroke="black" stroke-width="0.981456" stroke-miterlimit="10"/>
<path d="M307.246 156.265C307.283 156.597 303.996 157.226 300.008 158.076C298.014 158.483 296.205 158.889 294.838 159.148C294.137 159.259 293.546 159.296 293.14 159.185C292.733 159.111 292.549 158.963 292.549 158.889C292.549 158.816 292.77 158.779 293.14 158.705C293.509 158.631 293.989 158.52 294.617 158.298C295.872 157.854 297.682 157.3 299.713 156.893C303.849 156.043 307.209 155.932 307.246 156.265Z" fill="black" stroke="black" stroke-width="0.981456" stroke-miterlimit="10"/>
<path d="M328.145 145.582C327.812 145.619 327.443 144.399 327 142.958C326.557 141.516 326.188 140.296 326.483 140.148C326.779 139.963 327.665 141.035 328.145 142.625C328.662 144.215 328.477 145.582 328.145 145.582Z" fill="black" stroke="black" stroke-width="0.981456" stroke-miterlimit="10"/>
<path d="M335.939 174.159C335.976 174.307 333.872 174.936 330.4 175.786C326.966 176.636 322.203 177.819 316.959 179.076C311.715 180.37 306.952 181.516 303.48 182.329C300.009 183.143 297.867 183.586 297.831 183.401C297.794 183.253 299.862 182.514 303.259 181.479C306.656 180.444 311.383 179.15 316.663 177.893C321.944 176.599 326.745 175.601 330.216 174.936C333.724 174.307 335.903 173.974 335.939 174.159Z" fill="black" stroke="black" stroke-width="0.981456" stroke-miterlimit="10"/>
<path d="M335.125 174.861C335.162 175.009 333.131 175.675 329.808 176.599C326.484 177.523 321.905 178.743 316.809 179.963C311.713 181.22 307.097 182.292 303.737 182.994C300.377 183.697 298.272 184.066 298.235 183.919C298.198 183.771 300.229 183.105 303.515 182.181C306.839 181.257 311.418 180.037 316.514 178.817C321.61 177.56 326.226 176.488 329.586 175.786C333.02 175.083 335.088 174.713 335.125 174.861Z" fill="black" stroke="black" stroke-width="0.981456" stroke-miterlimit="10"/>
<path d="M308.467 193.841C308.54 194.174 307.174 194.839 305.365 195.246C303.555 195.652 302.004 195.615 301.968 195.32C301.931 194.987 303.334 194.469 305.106 194.1C306.879 193.656 308.393 193.508 308.467 193.841Z" fill="black" stroke="black" stroke-width="0.981456" stroke-miterlimit="10"/>
<path d="M340.528 184.007C340.602 184.34 339.716 184.821 338.534 185.153C337.352 185.449 336.318 185.449 336.207 185.116C336.134 184.784 337.02 184.303 338.202 183.97C339.383 183.675 340.417 183.675 340.528 184.007Z" fill="black" stroke="black" stroke-width="0.981456" stroke-miterlimit="10"/>
</svg>
