<svg width="24" height="24" viewBox="0 0 24 24" fill="none" xmlns="http://www.w3.org/2000/svg">
<path d="M13.4577 8.45825C13.4577 8.11307 13.1779 7.83325 12.8327 7.83325C12.4875 7.83325 12.2077 8.11307 12.2077 8.45825C12.2077 10.4798 11.7611 11.7926 10.9433 12.6105C10.1254 13.4283 8.81252 13.8749 6.79102 13.8749C6.44584 13.8749 6.16602 14.1547 6.16602 14.4999C6.16602 14.8451 6.44584 15.1249 6.79102 15.1249C8.81252 15.1249 10.1254 15.5715 10.9433 16.3893C11.7611 17.2072 12.2077 18.5201 12.2077 20.5416C12.2077 20.8868 12.4875 21.1666 12.8327 21.1666C13.1779 21.1666 13.4577 20.8868 13.4577 20.5416C13.4577 18.5201 13.9043 17.2072 14.7221 16.3893C15.54 15.5715 16.8528 15.1249 18.8743 15.1249C19.2195 15.1249 19.4993 14.8451 19.4993 14.4999C19.4993 14.1547 19.2195 13.8749 18.8743 13.8749C16.8528 13.8749 15.54 13.4283 14.7221 12.6105C13.9043 11.7926 13.4577 10.4798 13.4577 8.45825Z" fill="#60BF9C"/>
<path d="M6.99935 6.58325C6.99935 6.35313 6.8128 6.16658 6.58268 6.16658C6.35256 6.16658 6.16602 6.35313 6.16602 6.58325C6.16602 7.40044 5.98501 7.89375 5.6891 8.18967C5.39319 8.48558 4.89988 8.66658 4.08268 8.66658C3.85256 8.66658 3.66602 8.85313 3.66602 9.08325C3.66602 9.31337 3.85256 9.49992 4.08268 9.49992C4.89988 9.49992 5.39319 9.68093 5.6891 9.97684C5.98501 10.2727 6.16602 10.7661 6.16602 11.5833C6.16602 11.8134 6.35256 11.9999 6.58268 11.9999C6.8128 11.9999 6.99935 11.8134 6.99935 11.5833C6.99935 10.7661 7.18036 10.2727 7.47627 9.97684C7.77218 9.68093 8.26549 9.49992 9.08268 9.49992C9.3128 9.49992 9.49935 9.31337 9.49935 9.08325C9.49935 8.85313 9.3128 8.66658 9.08268 8.66658C8.26549 8.66658 7.77218 8.48558 7.47627 8.18967C7.18036 7.89375 6.99935 7.40044 6.99935 6.58325Z" fill="#60BF9C"/>
<path d="M11.166 3.24992C11.166 3.0198 10.9795 2.83325 10.7493 2.83325C10.5192 2.83325 10.3327 3.0198 10.3327 3.24992C10.3327 3.77776 10.2153 4.06274 10.0554 4.22265C9.8955 4.38257 9.61052 4.49992 9.08268 4.49992C8.85256 4.49992 8.66602 4.68647 8.66602 4.91658C8.66602 5.1467 8.85256 5.33325 9.08268 5.33325C9.61052 5.33325 9.8955 5.4506 10.0554 5.61052C10.2153 5.77043 10.3327 6.05541 10.3327 6.58325C10.3327 6.81337 10.5192 6.99992 10.7493 6.99992C10.9795 6.99992 11.166 6.81337 11.166 6.58325C11.166 6.05541 11.2834 5.77043 11.4433 5.61052C11.6032 5.4506 11.8882 5.33325 12.416 5.33325C12.6461 5.33325 12.8327 5.1467 12.8327 4.91658C12.8327 4.68647 12.6461 4.49992 12.416 4.49992C11.8882 4.49992 11.6032 4.38257 11.4433 4.22265C11.2834 4.06274 11.166 3.77776 11.166 3.24992Z" fill="#60BF9C"/>
</svg>
