<svg width="24" height="12" viewBox="0 0 24 12" fill="none" xmlns="http://www.w3.org/2000/svg">
<path fill-rule="evenodd" clip-rule="evenodd" d="M2.4 0C1.07452 0 0 1.07452 0 2.4V9.6C0 10.9255 1.07452 12 2.4 12H21.6C22.9255 12 24 10.9255 24 9.6V2.4C24 1.07452 22.9255 0 21.6 0H2.4ZM8.81064 8.16V3.79636H7.75808V6.31057H7.72186L6.00453 3.79636H5.09686V8.16H6.15154V5.64153H6.17924L7.91575 8.16H8.81064ZM9.47381 3.79636V8.16H12.5164V7.30346H10.5285V6.40645H12.3609V5.54778H10.5285V4.6529H12.5164V3.79636H9.47381ZM12.9532 3.79636L14.2231 8.16H15.2373L16.0235 5.51369H16.0576L16.8438 8.16H17.8602L19.1279 3.79636H17.9646L17.3041 6.66213H17.2678L16.5157 3.79636H15.5654L14.8133 6.65574H14.7771L14.1187 3.79636H12.9532Z" fill="black"/>
</svg>
