<svg width="24" height="24" viewBox="0 0 24 24" fill="none" xmlns="http://www.w3.org/2000/svg">
<path fill-rule="evenodd" clip-rule="evenodd" d="M16.5935 21.3333C17.1454 21.3333 17.4654 20.9651 17.4654 20.3989V18.1422H17.9888C20.5662 18.1422 22 16.7842 22 14.4193V7.71248C22 5.34874 20.5662 4 17.9888 4H6.0124C3.43504 4 2 5.35679 2 7.71248V14.4193C2 16.775 3.43504 18.1422 6.0124 18.1422H12.2722L15.4698 20.7579C15.9349 21.1354 16.2065 21.3333 16.5935 21.3333ZM12 6.47619C10.6281 6.47619 9.5 7.56253 9.5 8.9237C9.5 9.26559 9.77982 9.54275 10.125 9.54275C10.4702 9.54275 10.75 9.26559 10.75 8.9237C10.75 8.26441 11.3 7.71429 12 7.71429C12.7 7.71429 13.25 8.26441 13.25 8.9237C13.25 9.32505 13.0284 9.5603 12.6026 9.84023C12.0904 10.1759 11.375 10.7424 11.375 11.8191V12.0476C11.375 12.3895 11.6548 12.6667 12 12.6667C12.3452 12.6667 12.625 12.3895 12.625 12.0476V11.8191C12.625 11.4021 12.8569 11.1581 13.2934 10.8721C13.7936 10.5433 14.5 9.98498 14.5 8.9237C14.5 7.56253 13.3719 6.47619 12 6.47619ZM12 14.5238C12.3452 14.5238 12.625 14.2467 12.625 13.9048C12.625 13.5629 12.3452 13.2857 12 13.2857C11.6548 13.2857 11.375 13.5629 11.375 13.9048C11.375 14.2467 11.6548 14.5238 12 14.5238Z" fill="#211E1C"/>
</svg>
